<svg xmlns="http://www.w3.org/2000/svg" viewBox="106.298 161.577 629.292 272.126">
  <g fill="#F60">
    <path d="M352.142 226.037c-.77-2.424-1.666-4.777-2.598-7.137-.925-2.361-1.979-4.67-3.082-6.976-1.122-2.295-2.289-4.593-3.684-6.809-1.394-2.22-2.911-4.407-4.903-6.482l-2.021-2.106-2.475 2.259c-2.566 2.342-5.145 4.673-7.677 7.047-1.287 1.195-2.563 2.4-3.849 3.599-.786-.97-1.577-1.936-2.399-2.868-1.854-2.13-3.77-4.199-5.74-6.216-3.958-4.018-8.149-7.82-12.589-11.352-4.443-3.519-9.093-6.832-14.021-9.747-4.915-2.929-10.038-5.591-15.408-7.756-5.345-2.18-10.964-3.958-16.611-5.188-5.896-1.246-11.613-1.885-17.416-2.05-5.775-.201-11.526.113-17.213.782-5.687.673-11.304 1.773-16.815 3.211-5.51 1.461-10.912 3.275-16.162 5.437-5.243 2.177-10.341 4.673-15.247 7.479-4.913 2.791-9.619 5.921-14.104 9.31-4.493 3.374-8.775 7.009-12.76 10.934-4.025 3.877-7.76 8.032-11.27 12.345-3.497 4.328-6.7 8.873-9.665 13.56-2.952 4.695-5.604 9.572-7.987 14.571-2.396 4.996-4.484 10.133-6.34 15.354l-1 2.812 3.039.537c4.402.777 8.798 1.618 13.193 2.442l9.035 1.779c-.079.208-.158.416-.237.626-.554 1.466-1.057 2.939-1.546 4.419-.969 2.96-1.816 5.954-2.57 8.975-1.526 6.037-2.613 12.191-3.328 18.414-.711 6.221-.985 12.521-.781 18.833.242 6.309.916 12.633 2.117 18.881 1.212 6.248 2.934 12.416 5.157 18.41 2.239 5.987 4.976 11.784 8.075 17.393 3.272 5.77 7.074 11.025 11.324 15.957 4.256 4.902 8.939 9.394 13.921 13.472 4.974 4.095 10.252 7.771 15.735 11.079 5.514 3.26 11.225 6.15 17.104 8.63 5.893 2.448 11.916 4.567 18.07 6.229 6.156 1.646 12.407 2.949 18.734 3.777 6.328.812 12.715 1.234 19.119 1.178 6.401-.104 12.818-.609 19.169-1.729 6.342-1.114 12.634-2.75 18.693-5.095 6.062-2.328 11.9-5.324 17.322-8.967l5.208-3.498-3.327-4.859c-2.534-3.695-5.104-7.375-7.7-11.034l-5.044-7.151c.74-.537 1.482-1.074 2.206-1.625 2.106-1.621 4.147-3.3 6.131-5.035 1.982-1.733 3.908-3.521 5.781-5.356 1.878-1.827 3.665-3.743 5.408-5.688 1.746-1.943 3.438-3.934 5.062-5.967 1.646-2.016 3.17-4.13 4.678-6.24 1.474-2.139 2.944-4.268 4.274-6.488 1.354-2.203 2.634-4.447 3.843-6.723l-1.296-.844c-1.604 1.979-3.189 3.963-4.87 5.863-1.655 1.916-3.358 3.781-5.096 5.611-3.51 3.623-7.118 7.115-10.93 10.361-1.892 1.633-3.85 3.188-5.812 4.719s-3.962 3.008-5.999 4.416c-2.035 1.41-4.108 2.754-6.21 4.021-1.051.632-2.108 1.244-3.167 1.83-1.024.576-2.176 1.195-3.065 1.613l-4.55 2.137 2.726 4.754 6.694 11.678c1.132 1.986 2.293 3.955 3.439 5.934-3.266 1.521-6.635 2.832-10.102 3.879-5.343 1.586-10.834 2.768-16.427 3.389-5.581.67-11.241.87-16.897.68-5.658-.174-11.317-.742-16.925-1.672-5.604-.943-11.171-2.158-16.632-3.761-5.458-1.601-10.85-3.438-16.079-5.659-5.237-2.195-10.358-4.662-15.259-7.492-4.931-2.775-9.672-5.867-14.118-9.311-4.467-3.418-8.611-7.209-12.426-11.27-3.792-4.057-7.254-8.496-10.12-13.115-2.926-4.838-5.552-9.879-7.751-15.104-2.191-5.232-3.98-10.641-5.41-16.16-1.438-5.52-2.505-11.162-3.139-16.883-.657-5.717-.998-11.51-.864-17.319.126-5.808.593-11.641 1.502-17.418.449-2.889.991-5.767 1.646-8.615.332-1.421.678-2.842 1.065-4.242.369-1.382.83-2.833 1.258-4.059l1.451-4.149-4.043-.498-13.323-1.639c-3.434-.456-6.869-.908-10.302-1.38 1.375-4.091 2.963-8.109 4.757-12.031 2.246-4.848 4.78-9.567 7.701-14.035 1.448-2.241 2.974-4.433 4.604-6.542 1.604-2.128 3.3-4.187 5.075-6.169 3.551-3.967 7.375-7.679 11.481-11.036 4.109-3.354 8.441-6.409 12.947-9.153 4.532-2.704 9.215-5.126 14.033-7.207 4.807-2.106 9.743-3.877 14.744-5.373 4.999-1.5 10.064-2.732 15.168-3.684 2.546-.502 5.11-.898 7.676-1.24 2.562-.362 5.133-.649 7.705-.849 5.14-.449 10.286-.571 15.39-.431 5.072.176 10.224.634 14.994 1.562 4.998 1.029 9.842 2.368 14.64 4.14 4.774 1.779 9.46 3.903 14.011 6.339 4.543 2.447 8.997 5.139 13.265 8.142 4.293 2.966 8.438 6.19 12.414 9.62 1.995 1.708 3.945 3.472 5.835 5.291.948.908 1.873 1.832 2.796 2.755.897.91 1.85 1.91 2.609 2.758l3.582 3.987 3.161-3.64c2.275-2.62 4.529-5.261 6.779-7.905 1.581-1.839 3.142-3.701 4.696-5.562.806.824 1.591 1.712 2.352 2.626 1.518 1.847 3.015 3.782 4.416 5.798 1.42 2.007 2.74 4.096 4.084 6.187 1.332 2.095 2.79 4.146 3.854 6.392.979 2.063 1.249 3.416 1.249 3.416h1.312c.014-.008-.334-1.549-1.128-4.04zM483.9 270.405c1.521-15.104-5.188-24.945-19.398-28.46-5.672-1.403-11.426-1.596-16.8-1.596-1.28 0-2.564.011-3.852.022-2.588.022-5.184.045-7.786-.024l-1.135-.031v94.35h12.524v-40.383c.491-.023.835.156 1.556 1.208 7.45 10.894 15.354 22.376 25.627 37.224.949 1.371 1.798 2.025 2.673 2.062 1.66.062 3.447.095 5.798.095.974 0 1.959-.006 2.965-.011 1.041-.006 2.104-.01 3.19-.01h2.14l-29.547-41.639c12.764-1.93 20.781-10.201 22.045-22.807zm-12.303-2.541c-.202 8.229-3.672 12.446-11.599 14.099-3.009.623-6.064.855-9.305 1.101-1.088.083-2.182.166-3.277.265v-31.164c.688-.003 1.384-.003 2.073-.008 5.952-.043 11.795-.125 17.034 3.37 3.663 2.436 5.228 6.242 5.074 12.337zM513.911 289.016h36.151v-11.745h-36.126V252.1h37.257v-11.62h-49.839v94.23h49.93v-11.682h-37.373zM566.908 334.746h49.889v-11.739h-37.248v-34.082h36.133v-11.684h-36.193v-25.159h37.323v-11.55h-49.904zM369.119 252.194h22.235v82.542h12.429v-82.654h22.416v-11.546h-57.08z"/>
    <path d="M221.47 240.536l-41.548 94.317h1.693c.916 0 1.812.006 2.695.01.855.004 1.697.008 2.53.008 1.398 0 3.242-.01 5.116-.082 1.144-.043 2.159-1.227 2.517-2.051 3.955-9.146 6.948-16.201 9.709-22.881.434-1.049.729-1.26 1.813-1.26h.002c11.802.074 23.548.068 35.466.004 1.067 0 1.365.205 1.773 1.219 2.685 6.652 5.602 13.672 9.46 22.758.376.879 1.436 2.146 2.623 2.207 1.417.062 2.934.092 4.917.092h.004c.869 0 1.749-.006 2.646-.012.926-.006 1.867-.012 2.835-.012h1.676l-40.479-94.317h-5.448zm16.21 56.214h-27.764l14.04-32.875 13.724 32.875zM714.482 239.432h-4.362l-31.05 71.446-30.944-71.446h-4.355l-18.294 95.314h12.767l11.459-60.143 29.363 65.629 29.491-65.638 11.463 60.165h12.762zM347.243 310.048l-66.353-69.512h-5.29v94.178h12.308v-69.301l71.826 75.101v-99.961h-12.491z"/>
  </g>
</svg>
